<svg xmlns="http://www.w3.org/2000/svg" viewBox="0 0 64 64" width="100%" height="100%">
  <circle cx="32" cy="32" r="30" fill="#FFF3E0" />
  
  <!-- Vapor (Atrás) -->
  <path d="M22,25 Q20,15 25,10" fill="none" stroke="#FFB74D" stroke-width="2" stroke-linecap="round" />
  <path d="M32,22 Q30,12 35,8" fill="none" stroke="#FFB74D" stroke-width="2" stroke-linecap="round" />
  <path d="M42,25 Q40,15 45,10" fill="none" stroke="#FFB74D" stroke-width="2" stroke-linecap="round" />

  <!-- Cuchara de madera -->
  <path d="M48,15 L35,30" fill="none" stroke="#8D6E63" stroke-width="3" stroke-linecap="round" />
  <ellipse cx="49" cy="14" rx="4" ry="6" fill="#8D6E63" transform="rotate(45 49 14)" />

  <!-- Plato hondo -->
  <path d="M10,32 L54,32 C54,45 45,52 32,52 C19,52 10,45 10,32 Z" fill="#E65100" />
  <ellipse cx="32" cy="32" rx="22" ry="4" fill="#FFB74D" />
  
  <!-- Detalle del plato (Patrón simple) -->
  <path d="M15,40 Q32,50 49,40" fill="none" stroke="#FFFFFF" stroke-width="2" opacity="0.4" />
</svg>
