<svg xmlns="http://www.w3.org/2000/svg" viewBox="0 0 64 64" width="100%" height="100%">
  <circle cx="32" cy="32" r="30" fill="#EFF6FF" />

  <!-- Luna creciente -->
  <path d="M45,15 A12,12 0 1,0 50,35 A14,14 0 1,1 45,15 Z" fill="#FFB74D" />

  <!-- Nube/Bruma mística -->
  <path d="M20,38 C15,38 12,35 12,30 C12,25 18,22 22,25 C25,20 35,20 38,25 C42,22 48,25 48,30 C48,35 45,38 40,38 Z" fill="#93C5FD" opacity="0.6" />

  <!-- Libro abierto -->
  <path d="M12,48 L32,52 L52,48 L52,38 L32,42 L12,38 Z" fill="#1E3A8A" />
  <!-- Páginas -->
  <path d="M14,46 L32,50 L50,46 L50,38 L32,42 L14,38 Z" fill="#FFFFFF" />
  <!-- Lomo central -->
  <line x1="32" y1="42" x2="32" y2="52" stroke="#1E3A8A" stroke-width="2" />
  
  <!-- Estrellas místicas -->
  <path d="M25,12 L26,15 L29,16 L26,17 L25,20 L24,17 L21,16 L24,15 Z" fill="#1E3A8A" />
  <circle cx="15" cy="18" r="1.5" fill="#1E3A8A" />
</svg>
