<svg xmlns="http://www.w3.org/2000/svg" viewBox="0 0 64 64" width="100%" height="100%">
  <circle cx="32" cy="32" r="30" fill="#FFF3E0" />

  <!-- Burbuja de pensamiento (Historia) -->
  <path d="M25,15 C20,15 15,18 15,24 C15,26 16,28 18,30 Q20,35 15,38 Q22,38 25,34 C28,35 32,35 35,32 C40,28 40,20 35,16 C32,14 28,15 25,15 Z" fill="#1E3A8A" />
  <!-- Círculos pequeños de pensamiento -->
  <circle cx="28" cy="38" r="2" fill="#1E3A8A" />
  <circle cx="30" cy="42" r="1.5" fill="#1E3A8A" />
  
  <!-- Fuego -->
  <path d="M45,45 C45,45 50,35 45,28 C45,28 42,32 42,35 C42,35 35,25 38,45 Z" fill="#E65100" />
  <path d="M45,45 C45,45 47,38 45,35 C45,35 43,38 43,40 C43,40 40,32 41,45 Z" fill="#FFB74D" />

  <!-- Leños -->
  <rect x="35" y="44" width="18" height="5" rx="2" fill="#8D6E63" transform="rotate(-15 44 46)" />
  <rect x="35" y="44" width="18" height="5" rx="2" fill="#5D4037" transform="rotate(15 44 46)" />
</svg>
