<svg xmlns="http://www.w3.org/2000/svg" viewBox="0 0 64 64" width="100%" height="100%">
  <circle cx="32" cy="32" r="30" fill="#EFF6FF" />

  <!-- Burbuja Derecha -->
  <path d="M28,20 C28,14 36,10 45,10 C54,10 62,14 62,20 C62,26 54,30 45,30 C42,30 40,29 38,28 L32,32 L34,26 C30,24 28,22 28,20 Z" fill="#93C5FD" />
  <circle cx="40" cy="20" r="2" fill="#1E3A8A" />
  <circle cx="45" cy="20" r="2" fill="#1E3A8A" />
  <circle cx="50" cy="20" r="2" fill="#1E3A8A" />

  <!-- Burbuja Izquierda -->
  <path d="M4,35 C4,25 14,18 25,18 C36,18 46,25 46,35 C46,45 36,52 25,52 C20,52 16,50 12,48 L4,54 L8,44 C5,41 4,38 4,35 Z" fill="#1E3A8A" />
  <circle cx="20" cy="35" r="2.5" fill="#EFF6FF" />
  <circle cx="25" cy="35" r="2.5" fill="#EFF6FF" />
  <circle cx="30" cy="35" r="2.5" fill="#EFF6FF" />
</svg>
