<svg xmlns="http://www.w3.org/2000/svg" viewBox="0 0 64 64" width="100%" height="100%">
  <circle cx="32" cy="32" r="30" fill="#EFF6FF" />
  
  <!-- Gancho centrado -->
  <path d="M32,15 C35,15 37,12 35,8 C33,4 28,10 32,15 Z" fill="none" stroke="#94A3B8" stroke-width="2" />
  <path d="M32,15 L32,20" fill="none" stroke="#94A3B8" stroke-width="2" />

  <!-- Prenda ancha -->
  <path d="M20,20 L44,20 L55,30 L50,35 L44,30 L44,52 L20,52 L20,30 L14,35 L9,30 Z" fill="#1E3A8A" />
  
  <!-- Cuello -->
  <path d="M26,20 C26,25 38,25 38,20" fill="none" stroke="#EFF6FF" stroke-width="2" />
  
  <!-- Patrón decorativo -->
  <line x1="20" y1="45" x2="44" y2="45" stroke="#38BDF8" stroke-width="2" />
  <path d="M20,40 L24,37 L28,40 L32,37 L36,40 L40,37 L44,40" fill="none" stroke="#FFB74D" stroke-width="2" stroke-linejoin="round" />
</svg>
