<svg xmlns="http://www.w3.org/2000/svg" viewBox="0 0 64 64" width="100%" height="100%">
  <circle cx="32" cy="32" r="30" fill="#FFF3E0" />

  <!-- Pergamino -->
  <path d="M15,20 L45,20 C48,20 50,22 50,25 C50,28 48,30 45,30 C48,30 50,32 50,35 L50,50 L20,50 C17,50 15,48 15,45 C15,42 17,40 20,40 C17,40 15,38 15,35 L15,20 Z" fill="#FFB74D" opacity="0.5" />
  <rect x="18" y="22" width="28" height="26" fill="#FFFFFF" />

  <!-- Texto en pergamino -->
  <line x1="22" y1="26" x2="38" y2="26" stroke="#93C5FD" stroke-width="2" stroke-linecap="round" />
  <line x1="22" y1="32" x2="32" y2="32" stroke="#93C5FD" stroke-width="2" stroke-linecap="round" />
  <line x1="22" y1="38" x2="36" y2="38" stroke="#93C5FD" stroke-width="2" stroke-linecap="round" />

  <!-- Pluma (Quill) -->
  <path d="M48,10 C48,10 45,15 48,22 C48,22 45,25 35,35 L33,40 L38,38 C38,38 48,35 48,35 C48,35 55,30 55,20 C55,10 48,10 48,10 Z" fill="#1E3A8A" />
  
  <!-- Detalles de la pluma -->
  <path d="M48,10 C48,10 45,15 48,22 C48,22 45,25 35,35" fill="none" stroke="#EFF6FF" stroke-width="1.5" />
  <line x1="42" y1="18" x2="48" y2="15" stroke="#EFF6FF" stroke-width="1.5" />
  <line x1="40" y1="24" x2="46" y2="20" stroke="#EFF6FF" stroke-width="1.5" />

  <!-- Tinta -->
  <circle cx="34" cy="42" r="1.5" fill="#1E3A8A" />
</svg>
