<svg xmlns="http://www.w3.org/2000/svg" viewBox="0 0 64 64" width="100%" height="100%">
  <circle cx="32" cy="32" r="30" fill="#EFF6FF" />

  <!-- Mano bien dibujada y centrada -->
  <path d="M22,55 L22,35 C18,35 15,32 15,29 C15,26 18,26 24,29 L24,18 C24,15 29,15 29,18 L29,26 L30,26 L30,12 C30,9 35,9 35,12 L35,26 L36,26 L36,15 C36,12 41,12 41,15 L41,26 L42,26 L42,20 C42,17 47,17 47,20 L47,38 C47,48 38,55 30,55 Z" 
        fill="#1E3A8A" stroke="#1E3A8A" stroke-width="2" stroke-linejoin="round"/>
        
  <!-- Línea de la palma para detalle -->
  <path d="M22,40 C28,45 35,45 42,35" fill="none" stroke="#EFF6FF" stroke-width="1.5" stroke-linecap="round"/>
</svg>
