<svg xmlns="http://www.w3.org/2000/svg" viewBox="0 0 64 64" width="100%" height="100%">
  <circle cx="32" cy="32" r="30" fill="#FFF3E0" />
  
  <!-- Manzana grande y centrada -->
  <path d="M32,48 C16,48 12,38 12,28 C12,18 24,15 32,20 C40,15 52,18 52,28 C52,38 48,48 32,48 Z" fill="#E65100" />
  
  <!-- Tallo -->
  <path d="M32,20 C32,20 32,12 36,8" fill="none" stroke="#8D6E63" stroke-width="3" stroke-linecap="round" />
  
  <!-- Hoja -->
  <path d="M36,8 C42,6 46,12 46,12 C46,12 40,16 36,8 Z" fill="#4CAF50" />
  
  <!-- Brillo -->
  <path d="M20,28 A8,8 0 0,1 26,20" fill="none" stroke="#FFFFFF" stroke-width="2" stroke-linecap="round" opacity="0.4" />
</svg>
