<svg xmlns="http://www.w3.org/2000/svg" width="24" height="24" viewBox="0 0 24 24" fill="none" stroke="currentColor" stroke-width="2" stroke-linecap="round" stroke-linejoin="round">
  <path d="M12 2C6.48 2 2 6.48 2 12s4.48 10 10 10c1.06 0 1.93-.82 1.98-1.87.05-1.02-.32-2.01-1.01-2.73a2 2 0 0 1-.46-1.42c.04-.6.28-1.15.68-1.57.81-.85 1.93-1.41 3.16-1.41h.23c2.4 0 4.42-1.89 4.42-4.24v-.26C21 7.26 16.97 2 12 2z"/>
  <circle cx="6.5" cy="11.5" r="1.5"/>
  <circle cx="10" cy="6.5" r="1.5"/>
  <circle cx="15.5" cy="7" r="1.5"/>
</svg>