<svg xmlns="http://www.w3.org/2000/svg" viewBox="0 0 64 64" width="100%" height="100%">
  <circle cx="32" cy="32" r="30" fill="#FFF3E0" />

  <!-- Paleta de pintor -->
  <path d="M48,16 C38,10 20,12 14,24 C8,36 12,50 25,54 C35,57 45,50 50,42 C55,34 58,22 48,16 Z" fill="#E65100" />
  
  <!-- Orificio para el pulgar -->
  <ellipse cx="40" cy="45" rx="4" ry="6" fill="#FFF3E0" transform="rotate(-30 40 45)" />

  <!-- Pincel -->
  <path d="M55,10 L45,20" fill="none" stroke="#8D6E63" stroke-width="3" stroke-linecap="round" />
  <path d="M45,20 L40,25 C38,27 42,30 45,25 Z" fill="#1E3A8A" />

  <!-- Manchas de pintura -->
  <circle cx="22" cy="28" r="4" fill="#1E3A8A" /> <!-- Azul -->
  <circle cx="28" cy="42" r="5" fill="#4CAF50" /> <!-- Verde -->
  <circle cx="38" cy="26" r="4.5" fill="#FFB74D" /> <!-- Amarillo/Naranja claro -->
  
  <!-- Gota cayendo -->
  <path d="M22,32 L22,35 C22,37 24,37 24,35 L24,32 Z" fill="#1E3A8A" />
</svg>
