<svg xmlns="http://www.w3.org/2000/svg" viewBox="0 0 64 64" width="100%" height="100%">
  <circle cx="32" cy="32" r="30" fill="#FFF3E0" />
  
  <!-- Silueta clara de un perro sentado -->
  <path d="M48,24 C48,24 52,24 52,28 C52,30 50,30 48,30 L48,34 C48,38 46,40 46,40 L46,48 L40,48 L40,42 L26,42 L26,48 L20,48 L20,38 C16,35 12,28 12,28 C16,30 20,32 20,32 L20,26 C24,20 30,18 36,20 C38,16 42,14 46,16 C48,18 48,20 48,24 Z" fill="#E65100" />
  
  <!-- Oreja -->
  <path d="M42,12 L46,16 L40,16 Z" fill="#E65100" />
  
  <!-- Ojo -->
  <circle cx="45" cy="20" r="1.5" fill="#FFF3E0" />
</svg>
