<svg xmlns="http://www.w3.org/2000/svg" viewBox="0 0 64 64" width="100%" height="100%">
  <circle cx="32" cy="32" r="30" fill="#FFF3E0" />

  <!-- Círculo interior tenue -->
  <circle cx="32" cy="32" r="22" fill="none" stroke="#FFB74D" stroke-width="1.5" stroke-dasharray="4 2" />

  <!-- Ojo (Centro) -->
  <path d="M22,32 Q32,24 42,32 Q32,40 22,32 Z" fill="#FFFFFF" stroke="#E65100" stroke-width="2" />
  <circle cx="32" cy="32" r="4" fill="#1E3A8A" />

  <!-- Oreja (Izquierda) -->
  <path d="M16,32 C12,32 12,24 16,24 C18,24 18,28 16,28" fill="none" stroke="#E65100" stroke-width="2" stroke-linecap="round" />

  <!-- Nariz (Arriba) -->
  <path d="M30,16 L30,20 L34,20" fill="none" stroke="#E65100" stroke-width="2" stroke-linecap="round" stroke-linejoin="round" />

  <!-- Boca/Lengua (Abajo) -->
  <path d="M28,45 Q32,48 36,45" fill="none" stroke="#E65100" stroke-width="2" stroke-linecap="round" />
  <path d="M30,46 Q32,50 34,46" fill="#FFB74D" />

  <!-- Mano pequeña (Derecha - Tacto) -->
  <path d="M48,30 L48,26 A1.5,1.5 0 0,1 51,26 L51,34 C51,37 48,38 46,38 C45,38 45,35 45,35 L45,28 A1.5,1.5 0 0,1 48,28 Z" fill="#E65100" />
</svg>
